<svg width="25" height="25" viewBox="0 0 25 25" fill="none" xmlns="http://www.w3.org/2000/svg">
<rect x="0.5" y="0.5" width="24" height="24" rx="12" fill="#5E25FE"/>
<rect x="0.5" y="0.5" width="24" height="24" rx="12" stroke="#5E25FE"/>
<path d="M8.56534 18.5V16.9773L12.6051 13.017C12.9915 12.6269 13.3134 12.2803 13.571 11.9773C13.8286 11.6742 14.0218 11.3807 14.1506 11.0966C14.2794 10.8125 14.3438 10.5095 14.3438 10.1875C14.3438 9.82008 14.2604 9.50568 14.0938 9.24432C13.9271 8.97917 13.6979 8.77462 13.4062 8.63068C13.1146 8.48674 12.7831 8.41477 12.4119 8.41477C12.0294 8.41477 11.6941 8.49432 11.4062 8.65341C11.1184 8.80871 10.8949 9.0303 10.7358 9.31818C10.5805 9.60606 10.5028 9.94886 10.5028 10.3466H8.49716C8.49716 9.60795 8.66572 8.96591 9.00284 8.42045C9.33996 7.875 9.80398 7.45265 10.3949 7.15341C10.9896 6.85417 11.6714 6.70455 12.4403 6.70455C13.2206 6.70455 13.9063 6.85038 14.4972 7.14205C15.0881 7.43371 15.5464 7.83333 15.8722 8.34091C16.2017 8.84848 16.3665 9.42803 16.3665 10.0795C16.3665 10.5152 16.2831 10.9432 16.1165 11.3636C15.9498 11.7841 15.6563 12.25 15.2358 12.7614C14.8191 13.2727 14.2339 13.892 13.4801 14.6193L11.4744 16.6591V16.7386H16.5426V18.5H8.56534Z" fill="white"/>
</svg>
