<svg width="50" height="50" viewBox="0 0 50 50" fill="none" xmlns="http://www.w3.org/2000/svg">
<mask id="mask0_257_1005" style="mask-type:alpha" maskUnits="userSpaceOnUse" x="0" y="0" width="50" height="50">
<rect width="50" height="50" rx="2" fill="#D9D9D9"/>
</mask>
<g mask="url(#mask0_257_1005)">
<path d="M25.9244 43.2258C25.3267 43.5525 24.6038 43.5525 24.0061 43.2258L11.0759 36.159C10.4342 35.8082 10.0351 35.1353 10.0351 34.404V24.277C10.0351 23.5453 9.6355 22.872 8.99325 22.5215L5.29843 20.5048C3.90965 19.7467 3.90929 17.7526 5.2978 16.9941L24.0079 6.773C24.6046 6.447 25.3261 6.44654 25.9233 6.77177L46.8734 18.1817C47.5166 18.532 47.9168 19.2058 47.9168 19.9381V33.5763C47.9168 34.5352 47.1395 35.3125 46.1806 35.3125C45.2218 35.3125 44.4444 34.5352 44.4444 33.5763V24.0207C44.4444 22.5207 42.8544 21.5545 41.523 22.2456L40.9746 22.5302C40.3119 22.8742 39.896 23.5587 39.896 24.3054V34.4039C39.896 35.1352 39.4969 35.8082 38.8551 36.159L25.9244 43.2258ZM24.0081 26.7684C24.6047 27.0946 25.3262 27.0952 25.9235 26.7702L37.4124 20.5175C38.8084 19.7577 38.8033 17.7518 37.4034 16.9992L25.9144 10.8228C25.3219 10.5042 24.609 10.5049 24.0171 10.8245L12.5792 17.001C11.1837 17.7545 11.1785 19.7549 12.5702 20.5157L24.0081 26.7684ZM24.0035 39.2814C24.6026 39.6099 25.3279 39.6099 25.927 39.2814L35.3854 34.0939C36.0256 33.7428 36.4236 33.0706 36.4236 32.3403V28.4205C36.4236 26.9065 34.8066 25.9415 33.4741 26.6603L25.9201 30.735C25.3245 31.0562 24.6069 31.0545 24.0129 30.7305L16.4646 26.6133C15.1319 25.8863 13.5069 26.851 13.5069 28.3691V32.3403C13.5069 33.0706 13.9049 33.7428 14.5452 34.0939L24.0035 39.2814Z" fill="#5E25FE"/>
</g>
</svg>
