<svg width="20" height="20" viewBox="0 0 20 20" fill="none" xmlns="http://www.w3.org/2000/svg">
<path d="M9.99995 16.8002C6.23995 16.8002 3.19995 13.7602 3.19995 10.0002C3.19995 6.2402 6.23995 3.2002 9.99995 3.2002C13.76 3.2002 16.8 6.2402 16.8 10.0002C16.8 13.7602 13.76 16.8002 9.99995 16.8002ZM9.99995 4.0002C6.67995 4.0002 3.99995 6.6802 3.99995 10.0002C3.99995 13.3202 6.67995 16.0002 9.99995 16.0002C13.32 16.0002 16 13.3202 16 10.0002C16 6.6802 13.32 4.0002 9.99995 4.0002Z" fill="#5E25FE"/>
<path d="M9.19973 12.9603L5.71973 9.48031L6.27973 8.92031L9.19973 11.8403L13.7197 7.32031L14.2797 7.88031L9.19973 12.9603Z" fill="#5E25FE"/>
</svg>
